<mxfile host="app.diagrams.net" modified="2022-03-13T09:21:38.733Z" agent="5.0 (Macintosh; Intel Mac OS X 10_15_7) AppleWebKit/605.1.15 (KHTML, like Gecko) Version/15.3 Safari/605.1.15" etag="Kn7VypB9bLxX5bm5Fg9u" version="16.6.5" type="github">
  <diagram id="BgjWKJuripviDsnxctTk" name="Page-1">
    <mxGraphModel dx="946" dy="620" grid="0" gridSize="10" guides="1" tooltips="1" connect="1" arrows="1" fold="1" page="1" pageScale="1" pageWidth="1169" pageHeight="827" math="0" shadow="0">
      <root>
        <mxCell id="0" />
        <mxCell id="1" parent="0" />
        <mxCell id="CFr75wKBuciZfdH8mXrQ-2" value="" style="shape=image;verticalLabelPosition=bottom;labelBackgroundColor=default;verticalAlign=top;aspect=fixed;imageAspect=0;image=data:image/png,iVBORw0KGgoAAAANSUhEUgAAADIAAAAxCAYAAACYq/ofAAAYhmlDQ1BJQ0MgUHJvZmlsZQAAWIWVeQk4Vd33/z7nzte95nmWmcwzmed5HlO55pmuKYqEJCpkSCGFVzTQKCRkSEmmlFJJkaFUGkwhv2Oo9/2+3//z/z2//Tz77M9de+211l57WGfdAwDXK0p4eDBMD0BIaCTVzliP38XVjR83AWBAAmSgCugoXhHhujY2FgApv9v/LPPPALTePpFal/Xf/f/fwujtE+EFAOSOYE/vCK8QBLcAgC7yCqdGAoBdpwvGRIav40QEM1MRAxGcu479NnHlOvbcxI0bPA52+gjuAwBPolCofgDQvkLo/NFefogc2hWkjzHUOyAUABZk5lgtL3+KNwBcNgjP9pCQsHV8AMFiCH84gssRrOr5D5l+/yHf8498CsXvD96c10bBGwREhAdTYv+PrvnfS0hw1G8dIkgl+VNN7Nbnj/jweVCY+TomIXgm1NPKet3XCF4M8N70OwAw0T/KxHGTH+b2itBH/AdYESzrTTEwRzA3go1Cg60stuievgFGpghGfAbvC4g0dUAwO4LTfCIM7bd4zlHD7LZ0wbW+VH3dLfoDCnVD77qukaggR90t+d/8fUy35KNo4/wdnBFMRLBQdICTFYJpESwdEWRvvsWzI85f3+o3DzXKbt1+IQTb+YQa623KR0X7Uo3stvjTQyJ+zxd1zj/A1GoLX4/0dzDZ9A+q3YuyYT8yF1SfT6iu4285PhEuFr/n4u1jYLg5d9SUT6ij/ZacxfBIPbvNsWhieLDNFj96m0+w8Tp9G4IVI6Ltt8ainSKRzbkpH+0bHmnjsGknOi6QYmazaQ86C1gAfWAA+EEUUj1BGAgEAT0zt2eQX5s9RoACqMAP+ACpLcrvEc4bPaHI0x7EgU8I8gERf8bpbfT6gGiEvvqHuvmUAr4bvdEbI4LABIJDgDkIRn5HbYwK/aPNCYwjlID/0k5BqhdibzBS1/v/3/Tf1L8pugjFYosS9VsjP91vTqwh1gBrgjXCiqM50VpoDbQF8tRBqjxaFa32ex5/82MmMP2Yd5inmFHMiz0BSdR/WWkJRhH5Rlu+8PynL9AiiEwltB5aE5GOSEazojmBFFoR0aOL1kY0KyFU/S27173C/y/Z/zGDf6zGFh9BlgAT2Ag6BLF/j6SVoFX6I2Xd1//0z6atnn/8rf+n59/69f/hfW+kNf83JyoNdQPVibqHeohqRN0G/KhmVB2qG3V3Hf/ZXeMbu+u3NrsNe4IQOQH/pY+ypXPdkxGyl2SnZVc2+yJ99kWuHzz9sPBYaoCffyS/LhIdfPhNQ72kt/PLy8rLA7Aeazavr+92GzEEYu39m0ZBYokqwkXU+5sWhtwZ1XnIkTn9N00EOdMcagBct/OKokZv0tDrDwxyS9AhJ40D8AJBIIbMRx4oAw2gAwyBGbAGDsAV7Ea87I/scyqIAQfAIZAKMkAWyANnQAkoA5XgCrgOboNGcA/cB49AH3gKXiK75z34CGbBPFiGIAgHkSEmiAPig4QhSUgeUoW0IEPIArKDXCEPyA8KhaKgA1AylAGdhM5A56Eq6BpUD92DHkL90AvoLTQNfYN+wiiYBDPDPLAILAOrwrqwOewA74L94L1wHJwCn4AL4FL4MlwL34MfwU/hUfgjPIcCKBoUK0oAJYVSRemjrFFuKF8UFZWASkflo0pR1agGZJ2foEZRM6glNBbNhOZHSyE72ATtiPZC70UnoI+hz6Ar0bXodvQT9Fv0LPoXhozhxkhi1DGmGBeMHyYGk4rJx1RgbmE6kLP0HjOPxWJZsaJYFeQsumIDsfuxx7DF2BpsC7YfO4adw+FwHDhJnCbOGkfBReJScadxl3HNuAHce9wingbPh5fHG+Hd8KH4JHw+/iK+CT+An8QvE+gJwgR1gjXBmxBLyCSUExoIvYT3hGUiA1GUqEl0IAYSDxELiNXEDuIr4ncaGpptNGo0tjQBNIk0BTRXaR7QvKVZIjGSJEj6JHdSFOkE6QKphfSC9J1MJouQdchu5EjyCXIVuY08Ql6kZaKVpjWl9aY9SFtIW0s7QPuZjkAnTKdLt5suji6f7gZdL90MPYFehF6fnkKfQF9IX08/RD/HwMQgx2DNEMJwjOEiw0OGKUYcowijIaM3YwpjGWMb4xgTikmQSZ/JiymZqZypg+k9M5ZZlNmUOZA5g/kKcw/zLAsjiyKLE8s+lkKWuyyjrChWEVZT1mDWTNbrrM9Yf7LxsOmy+bAdZatmG2BbYOdi12H3YU9nr2F/yv6Tg5/DkCOII5vjNsdrTjSnBKctZwznWc4OzhkuZi4NLi+udK7rXMPcMLcEtx33fu4y7m7uOR5eHmOecJ7TPG08M7ysvDq8gby5vE2803xMfFp8AXy5fM18H/hZ+HX5g/kL+Nv5ZwW4BUwEogTOC/QILG8T3ea4LWlbzbbXgkRBVUFfwVzBVsFZIT4hS6EDQpeEhoUJwqrC/sKnhDuFF0RERZxFjojcFpkSZRc1FY0TvST6Sowspi22V6xUbFAcK64qHiReLN4nAUsoSfhLFEr0SsKSypIBksWS/dsx29W2h24v3T4kRZLSlYqWuiT1VppV2kI6Sfq29GcZIRk3mWyZTplfskqywbLlsi/lGOXM5JLkGuS+yUvIe8kXyg8qkBWMFA4q1Cl8VZRU9FE8q/hciUnJUumIUqvSqrKKMlW5WnlaRUjFQ6VIZUiVWdVG9ZjqAzWMmp7aQbVGtSV1ZfVI9evqXzSkNII0LmpM7RDd4bOjfMeY5jZNiuZ5zVEtfi0PrXNao9oC2hTtUu13OoI63joVOpO64rqBupd1P+vJ6lH1bukt6Kvrx+u3GKAMjA3SDXoMGQ0dDc8YjhhtM/IzumQ0a6xkvN+4xQRjYm6SbTJkymPqZVplOmumYhZv1m5OMrc3P2P+zkLCgmrRYAlbmlnmWL6yErYKtbptDaxNrXOsX9uI2uy1uWOLtbWxLbSdsJOzO2DXac9kv8f+ov28g55DpsNLRzHHKMdWJzond6cqpwVnA+eTzqMuMi7xLo9cOV0DXOvccG5ObhVuczsNd+btfO+u5J7q/myX6K59ux7u5twdvPvuHro9lD03PDAezh4XPVYo1pRSypynqWeR56yXvtcpr4/eOt653tM+mj4nfSZ9NX1P+k75afrl+E37a/vn+88E6AecCfgaaBJYErgQZB10IWgt2Dm4JgQf4hFSH8oYGhTaHsYbti+sP1wyPDV8dK/63ry9s1RzakUEFLEroi6SGXmp744Sizoc9TZaK7owejHGKebGPoZ9ofu6YyVij8ZOxhnF/bUfvd9rf+sBgQOHDryN140/nwAleCa0HhQ8mHLwfaJxYuUh4qGgQ4+TZJNOJv1Idk5uSOFJSUwZO2x8+FIqbSo1deiIxpGSNHRaQFrPUYWjp4/+SvdO78qQzcjPWDnmdazruNzxguNrJ3xP9GQqZ57NwmaFZj3L1s6uPMlwMu7kWI5lTm0uf2567o+8PXkP8xXzS04RT0WdGi2wKKg7LXQ66/TKGf8zTwv1CmuKuIuOFi0UexcPnNU5W13CU5JR8vNcwLnn543P15aKlOaXYcuiyybKnco7/1L9q6qCsyKjYvVC6IXRSrvK9iqVqqqL3BczL8GXoi5NX3a/3HfF4EpdtVT1+RrWmoyr4GrU1Q/XPK49u25+vfWG6o3qm8I3i24x3UqvhWpja2dv+98erXOt6683q29t0Gi4dUf6zoVGgcbCuyx3M5uITSlNa81xzXMt4S0z9/zujbXuaX3Z5tI22G7b3tNh3vHgvtH9tk7dzuYHmg8aH6o/rO9S7br9SPlRbbdS963HSo9v9Sj31Paq9Nb1qfU19O/obxrQHrj3xODJ/UHTwUdPrZ72P3N89nzIfWj0uffzqRfBL74ORw8vv0x8hXmV/pr+df4I90jpG/E3NaPKo3ffGrztfmf/7uWY19jH8YjxlfcpE+SJ/Em+yaop+anGaaPpvg87P7z/GP5xeSb1E8Onos9in29+0fnSPesy+/4r9evat2PfOb5f+KH4o3XOZm5kPmR+eSF9kWOxckl1qfOn88/J5ZgV3ErBqvhqwy/zX6/WQtbWwilUysarAAqpsK8vAN8uAEB2BYAJyduIOzdzwa2CQl4+YKR1gqShj3A7Khltj9HBiuI48ewEPqImjRUpiJxFW083wyDF6MNUxjzGKsEWy97MScflzF3O851vB3+KwGNBBiE74eMij8SAuIKEr+Sp7V1SCzJisrZyifKXFJ4qwcpyKrtU09Vq1d/uIGuqanloH9W5pvtKH2+gbOhllGVcZzJiBpkLWRhbBlplWt+0eW67aM/qoOBo7RTifNyl2vWR29uds+4Lu5b3AA8ihcNTykvX285nj6+PH8XfPmBHIH8QFDQa3BxyLjQ5zD/cZq8qlT8CH/El8llUU3RlTM6+hNjgONf9pgc041USlA+qJeoeMk9yTvZJiTx8ODX3SHnajaMt6d0Zz469OT554lPmt6y57PmTczlzuT/z0adYCrafNj7jVXiwqKC4+mxzyaNzg+eHS0fLpst/VKAusFRKVOlddL8Uczn3yvXq/pqv1xiuK9ywvxlxK6u26nZD3b36toaWO3cab92taapqLmspvpfXmt52oD2ww/6+cid759KD0Ye9XfcftXXfe9zYU9Nb0BfRrz9AHnjypHDQ96nSM8yzoaHK59EvdIaxw53I/lJ6Nfk6e0RjZOzN8VGN0Y9vS97ZjaHGasYdx5fe505sn2ietJscnzo8LTM9/qHyY+iMwszcp5rPXl8YvtyatZmd+HrgG9u3+98zf4TOUeZ9kX00/rNjVXptbWP9BaGrcCBKHjWFvoZJxLrgNPFSBFGiKM02kixZndaWzos+gaGEsYlpmoWeVZWNwp7GcZNzhJuGR4F3J18i/3mB5m0vBeeEaUT4RJXETMU9JGIlc7Zfk+qWnpJFywnI71BwU4xUylAuV6lXfaz2Tv3HDqwml5actqVOsG6m3lX9PoNPRnhjHhN5U0MzR3Mvi1DLfVYJ1sk2h21T7dLs0x2OOaY7pTjHuvi7OrgZ7NR2N9rltjtmT57HVUqrZ5dXh/ctnyLf/X7O/rIBpICZwL6ghuCqkMLQzLCkcOped6pOBF/EcuTTqCvRqTGe+wxjZeOE9vMc4IhnSaA/iD04n/juUFfSteS8lJjDu1LNjhikWRylpB/K+OvY/eMjJz5nzmUtZM+d/J4zm/spbyb/86nF0/Rn1ApDiyqKe86OlUyfe3/+TemLsv7yB381VTRe6Kr8dFHg0q7LRVde1DBftbqWhtxeS7eka71vF9YNNGDuKDbuuXu4qaK5saXp3sXWrLb49piOxPuZncUPyh6e7TrxKKrb/rFUD7pnuPd6X0Z/4IDtE8NBw6e2zzyHop6nvDgyHP/S95X+a87XMyP1b46MuryVeod/NzHWNl78fu+EziRpcnCqbPrgh4CP3jP+n0I+h38Jnw3/Sv0W/T32R8xcwLzxAt3CjUXDxUdLbkuffvatkFaHN9ZfErRD5tBz2AeFRWWiJdG9mDisDHYa9xfenyBDWCJ20ZSQYsh2tPJ0tHTz9C8YWhirmHKY41n8WO3YNNnFOVg4VjinuAa4m3iqecv4CvnzBXK3ZQqmCkULU0QMRflFF8W6xUskIiRNtgtIwVLT0kMyD2Qb5C7KFygkKnooqSljlXtV8lRd1DjUXqgXa3jvkNfEao5o1Wpn6vjrGuiJ6NMbAIPvhpNGz4zvmOSb+pgJm42aF1hYW+Is26ySrU1t2G0+2DbZ5dj7O2g4kh1HnK44H3Axc2VxfeNWuTMMif9Lu+7uTtyj74H36KcUeQZ57fAmeQ/7XPDd66fqt+LfHJAYqBMEglqCD4Xoh6JDO8IOh+uGL+69RHVFYnZVpHXkj6iC6B3RIzGJ+3j23Y31iGONG95/6UByvEuCWML8wbbEnEN+SQbJEinsh2lSQeqPI2Npj4/WpB/LoBxTPI47PnziamZ6VlC28UnGk/dzdubM5Mbl6ebrnUo7jT+TXjhezHFWvkTtnNp5pVKZMrFygb84KhguECsJVXTITtK87HHlSPWVmidXV66L3XC7efJW/23mOtf6ooahRsxd8SbjZs+Wg/fOtja1vWlfuy/Qqf/A7+GxrmuPnnWv9oj37uw71T/yRH7w+NPPQ/bP64cFXua9lnlD+zZmPGMq9pPVt/kl2/X13/xPcL1glQHIQfJMp+NInQYg+zaSZ94BgI0IgA0ZAAc1AB+pBrBxNYCCDv+JHxCSeOKRnJMV8AFxoIhkmhbADcma94GjSEZ5GTSBATABViBGSBzSQfLDCOg4kg92QGMwBAvAerA3fATJ8gbgnyhBlCUqDlWJGkLj0eroEHQZ+gWGEWOOZGRtWAirg03EtuIwODNcFu45XgAfjK8n4AjOhErCT6Il8TxxgcaKppKEJnmS2sjC5KPkz7QOtI1IppNND+j30o8zuDL0Mhox3mVSZaplVmduY7FjGWONYsOy5bOLsNdxWHFMcaZxyXGNcZfwePJK8i7y3efPE/DepiiIFXwpdEM4UyRY1FxMUpwsPivxVPLO9rNSCdLuMmqyzLKzco/lLyocVfRXMlOWVmFRWVP9pDaiPqDRtaNDs12rU7tHZ1h3Sm/eABhikXsOb4I3JZiRzJktBCwVraysQ21ybRvt3juQHRWdXJ3jXc65trtNutPskt3ttOeARzmlx3PRW8jH3vewX6P/z0D9oNPBS6FeYQN7jaiNkYpRNTFS+67F7djfFx92kDvxWVJuisXh+SO5R7endxzzOcGS+Sb7cc7rvLUC/jNqRRZn95yLLT1XPnxBqurcZdnq0Wvnb+6+TVNf3birWbKVr8PoQWk3qVesf34we0jsRf+rs29OvRuY8Jhe+sT45fI38EN2Xm1hbSn9Z93y4Mqd1bJf4WsqG/cHtPGfAyPgAiJAHmgDS+AOQkACyAbloB70gvdgFWKFZCAzyBdKhkqhe9A7GA2LwhYwFT4Dt8FfUNwoc9QBVA1qHM2JtkNnoDswEEYTsx9zB7OC1cYmYx/i6HGuuL9w3/C6+Bz8BEGDkEOYIRoha75C40JzE8mEqaRBshr5HC0N7T7aSTpXuh56I/oWBi2GZkZ9xi4me6bXSGb6kyWTVYL1Edtedlb2Wg5bjgnOWC4yVzm3Dvc4TzavGR8t32v+GwIntgUI6gmxC30UviuSJeorpicuLMEoid+OkcJL08owyjLI4eWW5KcUhhS7lO4p31PpUn2p9k2Ddoespq1WgHakDlXXX89F39hAzVDRSNXY2GSPaYLZefNOi1krLmtDmyAkpuXan3LIc8x1Oufc7PLVTWlnovvj3bx7Ij16PQW9fL3zfG759viN+y8HsgYpBDuERIeeCWsJ/0BlizCKjI66ED28jz7WMi5z//N4kYT4g2OH/JLpU7pSI9OwR49koI+lneDKbMtOynHJ0z+lcVqjUKNYrUT8PLr0fnl0BdeFu1Wel1guv67uuNp7fe6W3O0D9Y8a6ZoMWqitFe3TnXoPr3fL9RT1vR74Mfj12eTzseGpVz/eQG+JY8zvhSZNpvNnVL6kf69YCF7qWU5ZaVv98WtpY/1h5PQzAF4gBbSALfAF8SAfXAXd4ANEgCQhS4gKFUAt0AeYFTaAI+EKeBjFgDJFpaBaUKtoDXQcugG9gtHFpGOGsOLYQ9jXOC1cKR6PD8MPEtQIxUSYGEh8SmNAc4ekRrpHtiFP0CbRCdC10LvTzzNkMUoxPmYKZSYzV7LosbxijWXjZethP8HhyanHJcHNzL3M85q3ju8kf4iAxTZZQXYhrNCS8FeRL6LfxVYlaCWFtutIeUgnyhTL1sk9kf+uyKlkqpyk0qZGUnfXuKqJQ95Vm3S36eUYsBpWG7uZMpj1W5yxCrNxtJO3H3Z0c+p2MXF9stPXfXF3sgdECfd86q3iU+RH8D8USAwqC7EMA+G3qWGRvFFtMVGx3vs/J5Qnxh56lrSSAh/Gp9IfUUiLODqY4Xhs+kRalnT2i5y0PI38rwVVZ3YXEYsvlKicu1uqXdbyl0FFV6VN1eAlh8t91UY19dfErp+6ib8VX7tSd7RB5E7f3aRm5Zbp1qJ26/vozjsPIx5Jdo/3nO1zGWB+MvA0c8js+drw5VfWr6feRI2uvksaR71PmoSnkj+gPx6c+fzZ6EvsbPHX49+ivht8X/hxcc5q7uW8//z8QvTC9KL7Yu+S/tKln+Sf4T8HlpWWC5a/rpiulK4srzqsXvmF+uXy6/IatOa4dnF9/SN8FeQ3wgdE0gMAM7K29l0EANxJAFaz19aWS9fWVsuQZOMVAC3Bm9+ZNmINPQBFb9ZRl8TTxH9/49n8BvWPPObfLdiIRBtakUi0XtajEvgfLQfvtaLlToMAAABWZVhJZk1NACoAAAAIAAGHaQAEAAAAAQAAABoAAAAAAAOShgAHAAAAEgAAAESgAgAEAAAAAQAAADKgAwAEAAAAAQAAADEAAAAAQVNDSUkAAABTY3JlZW5zaG90dSYX6gAAAdRpVFh0WE1MOmNvbS5hZG9iZS54bXAAAAAAADx4OnhtcG1ldGEgeG1sbnM6eD0iYWRvYmU6bnM6bWV0YS8iIHg6eG1wdGs9IlhNUCBDb3JlIDYuMC4wIj4KICAgPHJkZjpSREYgeG1sbnM6cmRmPSJodHRwOi8vd3d3LnczLm9yZy8xOTk5LzAyLzIyLXJkZi1zeW50YXgtbnMjIj4KICAgICAgPHJkZjpEZXNjcmlwdGlvbiByZGY6YWJvdXQ9IiIKICAgICAgICAgICAgeG1sbnM6ZXhpZj0iaHR0cDovL25zLmFkb2JlLmNvbS9leGlmLzEuMC8iPgogICAgICAgICA8ZXhpZjpQaXhlbFlEaW1lbnNpb24+NDk8L2V4aWY6UGl4ZWxZRGltZW5zaW9uPgogICAgICAgICA8ZXhpZjpQaXhlbFhEaW1lbnNpb24+NTA8L2V4aWY6UGl4ZWxYRGltZW5zaW9uPgogICAgICAgICA8ZXhpZjpVc2VyQ29tbWVudD5TY3JlZW5zaG90PC9leGlmOlVzZXJDb21tZW50PgogICAgICA8L3JkZjpEZXNjcmlwdGlvbj4KICAgPC9yZGY6UkRGPgo8L3g6eG1wbWV0YT4Ku4cwlgAAA0JJREFUaAXtWU0vg0EQnn4gaRMf0aCHCoeS4CR6cCAaSW9+gTo4u3GhTm4ciIOERDTi5MgvEE36D5xISsSlikYPJaHGziT7aqOi7LxJ07x76O7O7nw8O7uzfWddqAo0QHE3AAaG4ACpN082jEe8Jiu7vr4Ol5eX8Pr6CsvLy/D29gY7Ozvw8vICsVgM5ufn4f39Hfb29uDs7Aza2tpgYWEBxsbGTNRW56Wo9d9yfn6OwWCQoh7Ozc1hR0cHRqNRbGlpYdrm5iZOTEzg0NAQjoyMMM3v92Mul/uvyh/54MeRGgdmZ2fZwL6+Pry9vWWuZDLJNAK4uLiIHx8fWCqVMBKJMP34+LhG6bVPMz4javXZ1aurqxAKhbg9PT3Ntc/ng42NDXC5XOB2u2Fqaorp2WyWa8kfYyDamJ6eHt2E9vZ2bnd1dYHX+3UMNZ3OknQRA1JuWFNTU3nXapeDsohCDVuACNn2JzHGQNQhZoXqQFuKKeRS0WN6QPd1rekStTGQm5sbtkNFLMue6+trbj8+PkKxWLTomUzm21xr0LRRe4D7PnNpackKs83NzXh6eopPT08YCAQs+sDAADOqixJV9GI61dvb298FGlBcxGu6GPXAb7y16gEE2eAAqRdPaDscj+iVqJfa8Ui9eELb0TAe+fqPraH9oabvDJMieRcbAZE0xGRBiLdhtpYDxHQrSPM7HpFeUVN5jkdMV1Ca3+geqWZMPp+H/f19uLi4gPv7e2htbYVwOAyJRAJUurQaiwyNPnWlysPDA6pEHXZ3d+PW1hYeHBxgb28vf6ff3d1Jqakqxzj3Wy718PCQjVbpU4ucTqdxdHTUlsS1pUQ1RIGQB9Q+wcHBQVTPDeV6bG+LAqFU0PDwMIPxeDwYj8fx6urKdhCkQBQICXx+fsa1tTVUCWsGpPK9uLu7S0O2FnEg2loCtLKyYoGhvp1FFAg98BwdHVXYOz4+zmBUOK6gS3dEgczMzCClTlOpFNtJIZfCMT3JqTcRadsr5In+RaGLj95GJicnobOzE/r7+/kB9OTkpOLBR+YGrJQinvul5wV1MUKhUGAwyhuVGm3qiQOxyc5fxYpurV+12TjBAWLj4v5LdMN45BNNX19BKtW88AAAAABJRU5ErkJggg==;" vertex="1" parent="1">
          <mxGeometry x="230" y="178" width="50" height="49" as="geometry" />
        </mxCell>
        <mxCell id="CFr75wKBuciZfdH8mXrQ-3" value="" style="shape=image;verticalLabelPosition=bottom;labelBackgroundColor=default;verticalAlign=top;aspect=fixed;imageAspect=0;image=data:image/png,iVBORw0KGgoAAAANSUhEUgAAADIAAAAxCAYAAACYq/ofAAAYhmlDQ1BJQ0MgUHJvZmlsZQAAWIWVeQk4Vd33/z7nzte95nmWmcwzmed5HlO55pmuKYqEJCpkSCGFVzTQKCRkSEmmlFJJkaFUGkwhv2Oo9/2+3//z/z2//Tz77M9de+211l57WGfdAwDXK0p4eDBMD0BIaCTVzliP38XVjR83AWBAAmSgCugoXhHhujY2FgApv9v/LPPPALTePpFal/Xf/f/fwujtE+EFAOSOYE/vCK8QBLcAgC7yCqdGAoBdpwvGRIav40QEM1MRAxGcu479NnHlOvbcxI0bPA52+gjuAwBPolCofgDQvkLo/NFefogc2hWkjzHUOyAUABZk5lgtL3+KNwBcNgjP9pCQsHV8AMFiCH84gssRrOr5D5l+/yHf8498CsXvD96c10bBGwREhAdTYv+PrvnfS0hw1G8dIkgl+VNN7Nbnj/jweVCY+TomIXgm1NPKet3XCF4M8N70OwAw0T/KxHGTH+b2itBH/AdYESzrTTEwRzA3go1Cg60stuievgFGpghGfAbvC4g0dUAwO4LTfCIM7bd4zlHD7LZ0wbW+VH3dLfoDCnVD77qukaggR90t+d/8fUy35KNo4/wdnBFMRLBQdICTFYJpESwdEWRvvsWzI85f3+o3DzXKbt1+IQTb+YQa623KR0X7Uo3stvjTQyJ+zxd1zj/A1GoLX4/0dzDZ9A+q3YuyYT8yF1SfT6iu4285PhEuFr/n4u1jYLg5d9SUT6ij/ZacxfBIPbvNsWhieLDNFj96m0+w8Tp9G4IVI6Ltt8ainSKRzbkpH+0bHmnjsGknOi6QYmazaQ86C1gAfWAA+EEUUj1BGAgEAT0zt2eQX5s9RoACqMAP+ACpLcrvEc4bPaHI0x7EgU8I8gERf8bpbfT6gGiEvvqHuvmUAr4bvdEbI4LABIJDgDkIRn5HbYwK/aPNCYwjlID/0k5BqhdibzBS1/v/3/Tf1L8pugjFYosS9VsjP91vTqwh1gBrgjXCiqM50VpoDbQF8tRBqjxaFa32ex5/82MmMP2Yd5inmFHMiz0BSdR/WWkJRhH5Rlu+8PynL9AiiEwltB5aE5GOSEazojmBFFoR0aOL1kY0KyFU/S27173C/y/Z/zGDf6zGFh9BlgAT2Ag6BLF/j6SVoFX6I2Xd1//0z6atnn/8rf+n59/69f/hfW+kNf83JyoNdQPVibqHeohqRN0G/KhmVB2qG3V3Hf/ZXeMbu+u3NrsNe4IQOQH/pY+ypXPdkxGyl2SnZVc2+yJ99kWuHzz9sPBYaoCffyS/LhIdfPhNQ72kt/PLy8rLA7Aeazavr+92GzEEYu39m0ZBYokqwkXU+5sWhtwZ1XnIkTn9N00EOdMcagBct/OKokZv0tDrDwxyS9AhJ40D8AJBIIbMRx4oAw2gAwyBGbAGDsAV7Ea87I/scyqIAQfAIZAKMkAWyANnQAkoA5XgCrgOboNGcA/cB49AH3gKXiK75z34CGbBPFiGIAgHkSEmiAPig4QhSUgeUoW0IEPIArKDXCEPyA8KhaKgA1AylAGdhM5A56Eq6BpUD92DHkL90AvoLTQNfYN+wiiYBDPDPLAILAOrwrqwOewA74L94L1wHJwCn4AL4FL4MlwL34MfwU/hUfgjPIcCKBoUK0oAJYVSRemjrFFuKF8UFZWASkflo0pR1agGZJ2foEZRM6glNBbNhOZHSyE72ATtiPZC70UnoI+hz6Ar0bXodvQT9Fv0LPoXhozhxkhi1DGmGBeMHyYGk4rJx1RgbmE6kLP0HjOPxWJZsaJYFeQsumIDsfuxx7DF2BpsC7YfO4adw+FwHDhJnCbOGkfBReJScadxl3HNuAHce9wingbPh5fHG+Hd8KH4JHw+/iK+CT+An8QvE+gJwgR1gjXBmxBLyCSUExoIvYT3hGUiA1GUqEl0IAYSDxELiNXEDuIr4ncaGpptNGo0tjQBNIk0BTRXaR7QvKVZIjGSJEj6JHdSFOkE6QKphfSC9J1MJouQdchu5EjyCXIVuY08Ql6kZaKVpjWl9aY9SFtIW0s7QPuZjkAnTKdLt5suji6f7gZdL90MPYFehF6fnkKfQF9IX08/RD/HwMQgx2DNEMJwjOEiw0OGKUYcowijIaM3YwpjGWMb4xgTikmQSZ/JiymZqZypg+k9M5ZZlNmUOZA5g/kKcw/zLAsjiyKLE8s+lkKWuyyjrChWEVZT1mDWTNbrrM9Yf7LxsOmy+bAdZatmG2BbYOdi12H3YU9nr2F/yv6Tg5/DkCOII5vjNsdrTjSnBKctZwznWc4OzhkuZi4NLi+udK7rXMPcMLcEtx33fu4y7m7uOR5eHmOecJ7TPG08M7ysvDq8gby5vE2803xMfFp8AXy5fM18H/hZ+HX5g/kL+Nv5ZwW4BUwEogTOC/QILG8T3ea4LWlbzbbXgkRBVUFfwVzBVsFZIT4hS6EDQpeEhoUJwqrC/sKnhDuFF0RERZxFjojcFpkSZRc1FY0TvST6Sowspi22V6xUbFAcK64qHiReLN4nAUsoSfhLFEr0SsKSypIBksWS/dsx29W2h24v3T4kRZLSlYqWuiT1VppV2kI6Sfq29GcZIRk3mWyZTplfskqywbLlsi/lGOXM5JLkGuS+yUvIe8kXyg8qkBWMFA4q1Cl8VZRU9FE8q/hciUnJUumIUqvSqrKKMlW5WnlaRUjFQ6VIZUiVWdVG9ZjqAzWMmp7aQbVGtSV1ZfVI9evqXzSkNII0LmpM7RDd4bOjfMeY5jZNiuZ5zVEtfi0PrXNao9oC2hTtUu13OoI63joVOpO64rqBupd1P+vJ6lH1bukt6Kvrx+u3GKAMjA3SDXoMGQ0dDc8YjhhtM/IzumQ0a6xkvN+4xQRjYm6SbTJkymPqZVplOmumYhZv1m5OMrc3P2P+zkLCgmrRYAlbmlnmWL6yErYKtbptDaxNrXOsX9uI2uy1uWOLtbWxLbSdsJOzO2DXac9kv8f+ov28g55DpsNLRzHHKMdWJzond6cqpwVnA+eTzqMuMi7xLo9cOV0DXOvccG5ObhVuczsNd+btfO+u5J7q/myX6K59ux7u5twdvPvuHro9lD03PDAezh4XPVYo1pRSypynqWeR56yXvtcpr4/eOt653tM+mj4nfSZ9NX1P+k75afrl+E37a/vn+88E6AecCfgaaBJYErgQZB10IWgt2Dm4JgQf4hFSH8oYGhTaHsYbti+sP1wyPDV8dK/63ry9s1RzakUEFLEroi6SGXmp744Sizoc9TZaK7owejHGKebGPoZ9ofu6YyVij8ZOxhnF/bUfvd9rf+sBgQOHDryN140/nwAleCa0HhQ8mHLwfaJxYuUh4qGgQ4+TZJNOJv1Idk5uSOFJSUwZO2x8+FIqbSo1deiIxpGSNHRaQFrPUYWjp4/+SvdO78qQzcjPWDnmdazruNzxguNrJ3xP9GQqZ57NwmaFZj3L1s6uPMlwMu7kWI5lTm0uf2567o+8PXkP8xXzS04RT0WdGi2wKKg7LXQ66/TKGf8zTwv1CmuKuIuOFi0UexcPnNU5W13CU5JR8vNcwLnn543P15aKlOaXYcuiyybKnco7/1L9q6qCsyKjYvVC6IXRSrvK9iqVqqqL3BczL8GXoi5NX3a/3HfF4EpdtVT1+RrWmoyr4GrU1Q/XPK49u25+vfWG6o3qm8I3i24x3UqvhWpja2dv+98erXOt6683q29t0Gi4dUf6zoVGgcbCuyx3M5uITSlNa81xzXMt4S0z9/zujbXuaX3Z5tI22G7b3tNh3vHgvtH9tk7dzuYHmg8aH6o/rO9S7br9SPlRbbdS963HSo9v9Sj31Paq9Nb1qfU19O/obxrQHrj3xODJ/UHTwUdPrZ72P3N89nzIfWj0uffzqRfBL74ORw8vv0x8hXmV/pr+df4I90jpG/E3NaPKo3ffGrztfmf/7uWY19jH8YjxlfcpE+SJ/Em+yaop+anGaaPpvg87P7z/GP5xeSb1E8Onos9in29+0fnSPesy+/4r9evat2PfOb5f+KH4o3XOZm5kPmR+eSF9kWOxckl1qfOn88/J5ZgV3ErBqvhqwy/zX6/WQtbWwilUysarAAqpsK8vAN8uAEB2BYAJyduIOzdzwa2CQl4+YKR1gqShj3A7Khltj9HBiuI48ewEPqImjRUpiJxFW083wyDF6MNUxjzGKsEWy97MScflzF3O851vB3+KwGNBBiE74eMij8SAuIKEr+Sp7V1SCzJisrZyifKXFJ4qwcpyKrtU09Vq1d/uIGuqanloH9W5pvtKH2+gbOhllGVcZzJiBpkLWRhbBlplWt+0eW67aM/qoOBo7RTifNyl2vWR29uds+4Lu5b3AA8ihcNTykvX285nj6+PH8XfPmBHIH8QFDQa3BxyLjQ5zD/cZq8qlT8CH/El8llUU3RlTM6+hNjgONf9pgc041USlA+qJeoeMk9yTvZJiTx8ODX3SHnajaMt6d0Zz469OT554lPmt6y57PmTczlzuT/z0adYCrafNj7jVXiwqKC4+mxzyaNzg+eHS0fLpst/VKAusFRKVOlddL8Uczn3yvXq/pqv1xiuK9ywvxlxK6u26nZD3b36toaWO3cab92taapqLmspvpfXmt52oD2ww/6+cid759KD0Ye9XfcftXXfe9zYU9Nb0BfRrz9AHnjypHDQ96nSM8yzoaHK59EvdIaxw53I/lJ6Nfk6e0RjZOzN8VGN0Y9vS97ZjaHGasYdx5fe505sn2ietJscnzo8LTM9/qHyY+iMwszcp5rPXl8YvtyatZmd+HrgG9u3+98zf4TOUeZ9kX00/rNjVXptbWP9BaGrcCBKHjWFvoZJxLrgNPFSBFGiKM02kixZndaWzos+gaGEsYlpmoWeVZWNwp7GcZNzhJuGR4F3J18i/3mB5m0vBeeEaUT4RJXETMU9JGIlc7Zfk+qWnpJFywnI71BwU4xUylAuV6lXfaz2Tv3HDqwml5actqVOsG6m3lX9PoNPRnhjHhN5U0MzR3Mvi1DLfVYJ1sk2h21T7dLs0x2OOaY7pTjHuvi7OrgZ7NR2N9rltjtmT57HVUqrZ5dXh/ctnyLf/X7O/rIBpICZwL6ghuCqkMLQzLCkcOped6pOBF/EcuTTqCvRqTGe+wxjZeOE9vMc4IhnSaA/iD04n/juUFfSteS8lJjDu1LNjhikWRylpB/K+OvY/eMjJz5nzmUtZM+d/J4zm/spbyb/86nF0/Rn1ApDiyqKe86OlUyfe3/+TemLsv7yB381VTRe6Kr8dFHg0q7LRVde1DBftbqWhtxeS7eka71vF9YNNGDuKDbuuXu4qaK5saXp3sXWrLb49piOxPuZncUPyh6e7TrxKKrb/rFUD7pnuPd6X0Z/4IDtE8NBw6e2zzyHop6nvDgyHP/S95X+a87XMyP1b46MuryVeod/NzHWNl78fu+EziRpcnCqbPrgh4CP3jP+n0I+h38Jnw3/Sv0W/T32R8xcwLzxAt3CjUXDxUdLbkuffvatkFaHN9ZfErRD5tBz2AeFRWWiJdG9mDisDHYa9xfenyBDWCJ20ZSQYsh2tPJ0tHTz9C8YWhirmHKY41n8WO3YNNnFOVg4VjinuAa4m3iqecv4CvnzBXK3ZQqmCkULU0QMRflFF8W6xUskIiRNtgtIwVLT0kMyD2Qb5C7KFygkKnooqSljlXtV8lRd1DjUXqgXa3jvkNfEao5o1Wpn6vjrGuiJ6NMbAIPvhpNGz4zvmOSb+pgJm42aF1hYW+Is26ySrU1t2G0+2DbZ5dj7O2g4kh1HnK44H3Axc2VxfeNWuTMMif9Lu+7uTtyj74H36KcUeQZ57fAmeQ/7XPDd66fqt+LfHJAYqBMEglqCD4Xoh6JDO8IOh+uGL+69RHVFYnZVpHXkj6iC6B3RIzGJ+3j23Y31iGONG95/6UByvEuCWML8wbbEnEN+SQbJEinsh2lSQeqPI2Npj4/WpB/LoBxTPI47PnziamZ6VlC28UnGk/dzdubM5Mbl6ebrnUo7jT+TXjhezHFWvkTtnNp5pVKZMrFygb84KhguECsJVXTITtK87HHlSPWVmidXV66L3XC7efJW/23mOtf6ooahRsxd8SbjZs+Wg/fOtja1vWlfuy/Qqf/A7+GxrmuPnnWv9oj37uw71T/yRH7w+NPPQ/bP64cFXua9lnlD+zZmPGMq9pPVt/kl2/X13/xPcL1glQHIQfJMp+NInQYg+zaSZ94BgI0IgA0ZAAc1AB+pBrBxNYCCDv+JHxCSeOKRnJMV8AFxoIhkmhbADcma94GjSEZ5GTSBATABViBGSBzSQfLDCOg4kg92QGMwBAvAerA3fATJ8gbgnyhBlCUqDlWJGkLj0eroEHQZ+gWGEWOOZGRtWAirg03EtuIwODNcFu45XgAfjK8n4AjOhErCT6Il8TxxgcaKppKEJnmS2sjC5KPkz7QOtI1IppNND+j30o8zuDL0Mhox3mVSZaplVmduY7FjGWONYsOy5bOLsNdxWHFMcaZxyXGNcZfwePJK8i7y3efPE/DepiiIFXwpdEM4UyRY1FxMUpwsPivxVPLO9rNSCdLuMmqyzLKzco/lLyocVfRXMlOWVmFRWVP9pDaiPqDRtaNDs12rU7tHZ1h3Sm/eABhikXsOb4I3JZiRzJktBCwVraysQ21ybRvt3juQHRWdXJ3jXc65trtNutPskt3ttOeARzmlx3PRW8jH3vewX6P/z0D9oNPBS6FeYQN7jaiNkYpRNTFS+67F7djfFx92kDvxWVJuisXh+SO5R7endxzzOcGS+Sb7cc7rvLUC/jNqRRZn95yLLT1XPnxBqurcZdnq0Wvnb+6+TVNf3birWbKVr8PoQWk3qVesf34we0jsRf+rs29OvRuY8Jhe+sT45fI38EN2Xm1hbSn9Z93y4Mqd1bJf4WsqG/cHtPGfAyPgAiJAHmgDS+AOQkACyAbloB70gvdgFWKFZCAzyBdKhkqhe9A7GA2LwhYwFT4Dt8FfUNwoc9QBVA1qHM2JtkNnoDswEEYTsx9zB7OC1cYmYx/i6HGuuL9w3/C6+Bz8BEGDkEOYIRoha75C40JzE8mEqaRBshr5HC0N7T7aSTpXuh56I/oWBi2GZkZ9xi4me6bXSGb6kyWTVYL1Edtedlb2Wg5bjgnOWC4yVzm3Dvc4TzavGR8t32v+GwIntgUI6gmxC30UviuSJeorpicuLMEoid+OkcJL08owyjLI4eWW5KcUhhS7lO4p31PpUn2p9k2Ddoespq1WgHakDlXXX89F39hAzVDRSNXY2GSPaYLZefNOi1krLmtDmyAkpuXan3LIc8x1Oufc7PLVTWlnovvj3bx7Ij16PQW9fL3zfG759viN+y8HsgYpBDuERIeeCWsJ/0BlizCKjI66ED28jz7WMi5z//N4kYT4g2OH/JLpU7pSI9OwR49koI+lneDKbMtOynHJ0z+lcVqjUKNYrUT8PLr0fnl0BdeFu1Wel1guv67uuNp7fe6W3O0D9Y8a6ZoMWqitFe3TnXoPr3fL9RT1vR74Mfj12eTzseGpVz/eQG+JY8zvhSZNpvNnVL6kf69YCF7qWU5ZaVv98WtpY/1h5PQzAF4gBbSALfAF8SAfXAXd4ANEgCQhS4gKFUAt0AeYFTaAI+EKeBjFgDJFpaBaUKtoDXQcugG9gtHFpGOGsOLYQ9jXOC1cKR6PD8MPEtQIxUSYGEh8SmNAc4ekRrpHtiFP0CbRCdC10LvTzzNkMUoxPmYKZSYzV7LosbxijWXjZethP8HhyanHJcHNzL3M85q3ju8kf4iAxTZZQXYhrNCS8FeRL6LfxVYlaCWFtutIeUgnyhTL1sk9kf+uyKlkqpyk0qZGUnfXuKqJQ95Vm3S36eUYsBpWG7uZMpj1W5yxCrNxtJO3H3Z0c+p2MXF9stPXfXF3sgdECfd86q3iU+RH8D8USAwqC7EMA+G3qWGRvFFtMVGx3vs/J5Qnxh56lrSSAh/Gp9IfUUiLODqY4Xhs+kRalnT2i5y0PI38rwVVZ3YXEYsvlKicu1uqXdbyl0FFV6VN1eAlh8t91UY19dfErp+6ib8VX7tSd7RB5E7f3aRm5Zbp1qJ26/vozjsPIx5Jdo/3nO1zGWB+MvA0c8js+drw5VfWr6feRI2uvksaR71PmoSnkj+gPx6c+fzZ6EvsbPHX49+ivht8X/hxcc5q7uW8//z8QvTC9KL7Yu+S/tKln+Sf4T8HlpWWC5a/rpiulK4srzqsXvmF+uXy6/IatOa4dnF9/SN8FeQ3wgdE0gMAM7K29l0EANxJAFaz19aWS9fWVsuQZOMVAC3Bm9+ZNmINPQBFb9ZRl8TTxH9/49n8BvWPPObfLdiIRBtakUi0XtajEvgfLQfvtaLlToMAAABWZVhJZk1NACoAAAAIAAGHaQAEAAAAAQAAABoAAAAAAAOShgAHAAAAEgAAAESgAgAEAAAAAQAAADKgAwAEAAAAAQAAADEAAAAAQVNDSUkAAABTY3JlZW5zaG90dSYX6gAAAdRpVFh0WE1MOmNvbS5hZG9iZS54bXAAAAAAADx4OnhtcG1ldGEgeG1sbnM6eD0iYWRvYmU6bnM6bWV0YS8iIHg6eG1wdGs9IlhNUCBDb3JlIDYuMC4wIj4KICAgPHJkZjpSREYgeG1sbnM6cmRmPSJodHRwOi8vd3d3LnczLm9yZy8xOTk5LzAyLzIyLXJkZi1zeW50YXgtbnMjIj4KICAgICAgPHJkZjpEZXNjcmlwdGlvbiByZGY6YWJvdXQ9IiIKICAgICAgICAgICAgeG1sbnM6ZXhpZj0iaHR0cDovL25zLmFkb2JlLmNvbS9leGlmLzEuMC8iPgogICAgICAgICA8ZXhpZjpQaXhlbFlEaW1lbnNpb24+NDk8L2V4aWY6UGl4ZWxZRGltZW5zaW9uPgogICAgICAgICA8ZXhpZjpQaXhlbFhEaW1lbnNpb24+NTA8L2V4aWY6UGl4ZWxYRGltZW5zaW9uPgogICAgICAgICA8ZXhpZjpVc2VyQ29tbWVudD5TY3JlZW5zaG90PC9leGlmOlVzZXJDb21tZW50PgogICAgICA8L3JkZjpEZXNjcmlwdGlvbj4KICAgPC9yZGY6UkRGPgo8L3g6eG1wbWV0YT4Ku4cwlgAABBFJREFUaAXtWUsovUEUP5crYeGVPDcKSdgg7JCFWIiSLVmwoJSFhR1iLRaWUuyklKWNIuVRSpL3IyGl5JXn+Z85+eZ/73e7zPe6brc7de/M/GbOzPnNnDPffOdzISUIgRQRAhyYQsgQcavuyMnJCTw/P8PLywsUFRVBdHS0qmhg+gkfUUnl5eXCl/i3s7OjIhLQPsqmtba2Bjk5OYFZXROzKBMRY2dmZpqYIjAihohERBjqHhgG37MoO7vo73K5vJRbWFiApaUliSUlJUFzczNMTEzwwZCdnQ0DAwMwPj4Oy8vLUFBQAG1tbZCfnw/kZ9zv+voaKioqoK+vD6KiouRYhgtGPLKmpsbL2Y+OjjAlJYUxUhIXFxfx7u4Oe3p6GCssLMTS0lIsLi5GUp6x3NxcnJqawsTERKyursbY2FjG+/v7jaji0xd8kB8APZH19XV0u91YX1+PDw8PUvLg4ICVo1XFoaEhxt/e3pAOC8Zp53B/f59x2lXGBFEryTSRlZUVTE5OxpaWFhRKeqbz83NWjg4HTxjb29sZHxkZkfjT0xNjYoesJEM+otltR0cHbG5uQlxcHJCZ+LXttLQ0TYTzhIQEzjMyMiROpsXy7+/vEjNTMHUMdXV1QWVlJdzf37OTqk7sz5nJPFWH8NvPFJGysjKYm5uD9PR0mJychJmZGb8TBKrBEJHPz0/W6+PjA+i0gtnZWRDPls7OTtjd3ZU6a/2+vr4kJgpCTiStnSvfdT2mtanmykTERBcXFzzu8fEx51VVVdDb2wvksNDQ0CDbxQVTpKurK/C0fQ2nw4Dbxd/l5SXQYcGX0dvbW4kbLqieFLW1tXy60AQYExOD5Ows2tTUJHHxTKAHH8bHx0tMXDZFGhwclFhkZCROT08jkURyfImTqeLr6yv3N/rnEgKG2QehgLJpBaHuXiqFiXgtRxBUwjsSBJvgpUJ4R7yWIwgqIbMjytdO/WuuU5tg9vmsTMTsBE4R1o8bMqYVMkSUTUu/lfr66ekpX+f/LDYsbr92JHr1ldfx7e1tO4Y0NIZtprW6ugp5eXn6jQpY3TYiQuOsrKyAKa6fyFYifxkbts3Z9SskYsIi5vX4+AgUoYTu7m6f2LFexlLdkEf90ll7r29tbeWYcElJCdKNgA+BsbGxX6StNdtqWtqKHh4ewt7eHmxsbMDw8DDD8/PzWrMjuSNERkdHQXxiEKmxsZFzS6EeHuHnP0eIpKamylkpOM1lLTgnG2wuOELEU0eKgXlWHSs7TsQxzXUD20pEi996xnw1TMt189tWtY2IUF6LDZ+dnUkFtTjxzc0Nx3dlg90Fa6f3f+m6ujp5aaQPQLi1tYX0oRPFZzbSmX9WP6/9n823FI792m0ZVsezzUesKmJV/h+jpS/y3S9sOgAAAABJRU5ErkJggg==;" vertex="1" parent="1">
          <mxGeometry x="373" y="178" width="50" height="49" as="geometry" />
        </mxCell>
        <mxCell id="CFr75wKBuciZfdH8mXrQ-5" value="" style="endArrow=classic;html=1;exitX=0.75;exitY=0;exitDx=0;exitDy=0;entryX=0.25;entryY=0;entryDx=0;entryDy=0;curved=1;" edge="1" parent="1" source="CFr75wKBuciZfdH8mXrQ-2" target="CFr75wKBuciZfdH8mXrQ-3">
          <mxGeometry width="50" height="50" relative="1" as="geometry">
            <mxPoint x="457" y="344" as="sourcePoint" />
            <mxPoint x="507" y="294" as="targetPoint" />
            <Array as="points">
              <mxPoint x="326" y="135" />
            </Array>
          </mxGeometry>
        </mxCell>
        <mxCell id="CFr75wKBuciZfdH8mXrQ-7" value="" style="endArrow=classic;html=1;exitX=0.25;exitY=1;exitDx=0;exitDy=0;entryX=0.75;entryY=1;entryDx=0;entryDy=0;curved=1;" edge="1" parent="1" source="CFr75wKBuciZfdH8mXrQ-3" target="CFr75wKBuciZfdH8mXrQ-2">
          <mxGeometry width="50" height="50" relative="1" as="geometry">
            <mxPoint x="277.5" y="188" as="sourcePoint" />
            <mxPoint x="395.5" y="188" as="targetPoint" />
            <Array as="points">
              <mxPoint x="334" y="274" />
            </Array>
          </mxGeometry>
        </mxCell>
        <mxCell id="CFr75wKBuciZfdH8mXrQ-9" value="" style="shape=image;verticalLabelPosition=bottom;labelBackgroundColor=default;verticalAlign=top;aspect=fixed;imageAspect=0;image=data:image/png,iVBORw0KGgoAAAANSUhEUgAAADUAAAAhCAYAAAB5oeP9AAAYhmlDQ1BJQ0MgUHJvZmlsZQAAWIWVeQk4Vd33/z7nzte95nmWmcwzmed5HlO55pmuKYqEJCpkSCGFVzTQKCRkSEmmlFJJkaFUGkwhv2Oo9/2+3//z/z2//Tz77M9de+211l57WGfdAwDXK0p4eDBMD0BIaCTVzliP38XVjR83AWBAAmSgCugoXhHhujY2FgApv9v/LPPPALTePpFal/Xf/f/fwujtE+EFAOSOYE/vCK8QBLcAgC7yCqdGAoBdpwvGRIav40QEM1MRAxGcu479NnHlOvbcxI0bPA52+gjuAwBPolCofgDQvkLo/NFefogc2hWkjzHUOyAUABZk5lgtL3+KNwBcNgjP9pCQsHV8AMFiCH84gssRrOr5D5l+/yHf8498CsXvD96c10bBGwREhAdTYv+PrvnfS0hw1G8dIkgl+VNN7Nbnj/jweVCY+TomIXgm1NPKet3XCF4M8N70OwAw0T/KxHGTH+b2itBH/AdYESzrTTEwRzA3go1Cg60stuievgFGpghGfAbvC4g0dUAwO4LTfCIM7bd4zlHD7LZ0wbW+VH3dLfoDCnVD77qukaggR90t+d/8fUy35KNo4/wdnBFMRLBQdICTFYJpESwdEWRvvsWzI85f3+o3DzXKbt1+IQTb+YQa623KR0X7Uo3stvjTQyJ+zxd1zj/A1GoLX4/0dzDZ9A+q3YuyYT8yF1SfT6iu4285PhEuFr/n4u1jYLg5d9SUT6ij/ZacxfBIPbvNsWhieLDNFj96m0+w8Tp9G4IVI6Ltt8ainSKRzbkpH+0bHmnjsGknOi6QYmazaQ86C1gAfWAA+EEUUj1BGAgEAT0zt2eQX5s9RoACqMAP+ACpLcrvEc4bPaHI0x7EgU8I8gERf8bpbfT6gGiEvvqHuvmUAr4bvdEbI4LABIJDgDkIRn5HbYwK/aPNCYwjlID/0k5BqhdibzBS1/v/3/Tf1L8pugjFYosS9VsjP91vTqwh1gBrgjXCiqM50VpoDbQF8tRBqjxaFa32ex5/82MmMP2Yd5inmFHMiz0BSdR/WWkJRhH5Rlu+8PynL9AiiEwltB5aE5GOSEazojmBFFoR0aOL1kY0KyFU/S27173C/y/Z/zGDf6zGFh9BlgAT2Ag6BLF/j6SVoFX6I2Xd1//0z6atnn/8rf+n59/69f/hfW+kNf83JyoNdQPVibqHeohqRN0G/KhmVB2qG3V3Hf/ZXeMbu+u3NrsNe4IQOQH/pY+ypXPdkxGyl2SnZVc2+yJ99kWuHzz9sPBYaoCffyS/LhIdfPhNQ72kt/PLy8rLA7Aeazavr+92GzEEYu39m0ZBYokqwkXU+5sWhtwZ1XnIkTn9N00EOdMcagBct/OKokZv0tDrDwxyS9AhJ40D8AJBIIbMRx4oAw2gAwyBGbAGDsAV7Ea87I/scyqIAQfAIZAKMkAWyANnQAkoA5XgCrgOboNGcA/cB49AH3gKXiK75z34CGbBPFiGIAgHkSEmiAPig4QhSUgeUoW0IEPIArKDXCEPyA8KhaKgA1AylAGdhM5A56Eq6BpUD92DHkL90AvoLTQNfYN+wiiYBDPDPLAILAOrwrqwOewA74L94L1wHJwCn4AL4FL4MlwL34MfwU/hUfgjPIcCKBoUK0oAJYVSRemjrFFuKF8UFZWASkflo0pR1agGZJ2foEZRM6glNBbNhOZHSyE72ATtiPZC70UnoI+hz6Ar0bXodvQT9Fv0LPoXhozhxkhi1DGmGBeMHyYGk4rJx1RgbmE6kLP0HjOPxWJZsaJYFeQsumIDsfuxx7DF2BpsC7YfO4adw+FwHDhJnCbOGkfBReJScadxl3HNuAHce9wingbPh5fHG+Hd8KH4JHw+/iK+CT+An8QvE+gJwgR1gjXBmxBLyCSUExoIvYT3hGUiA1GUqEl0IAYSDxELiNXEDuIr4ncaGpptNGo0tjQBNIk0BTRXaR7QvKVZIjGSJEj6JHdSFOkE6QKphfSC9J1MJouQdchu5EjyCXIVuY08Ql6kZaKVpjWl9aY9SFtIW0s7QPuZjkAnTKdLt5suji6f7gZdL90MPYFehF6fnkKfQF9IX08/RD/HwMQgx2DNEMJwjOEiw0OGKUYcowijIaM3YwpjGWMb4xgTikmQSZ/JiymZqZypg+k9M5ZZlNmUOZA5g/kKcw/zLAsjiyKLE8s+lkKWuyyjrChWEVZT1mDWTNbrrM9Yf7LxsOmy+bAdZatmG2BbYOdi12H3YU9nr2F/yv6Tg5/DkCOII5vjNsdrTjSnBKctZwznWc4OzhkuZi4NLi+udK7rXMPcMLcEtx33fu4y7m7uOR5eHmOecJ7TPG08M7ysvDq8gby5vE2803xMfFp8AXy5fM18H/hZ+HX5g/kL+Nv5ZwW4BUwEogTOC/QILG8T3ea4LWlbzbbXgkRBVUFfwVzBVsFZIT4hS6EDQpeEhoUJwqrC/sKnhDuFF0RERZxFjojcFpkSZRc1FY0TvST6Sowspi22V6xUbFAcK64qHiReLN4nAUsoSfhLFEr0SsKSypIBksWS/dsx29W2h24v3T4kRZLSlYqWuiT1VppV2kI6Sfq29GcZIRk3mWyZTplfskqywbLlsi/lGOXM5JLkGuS+yUvIe8kXyg8qkBWMFA4q1Cl8VZRU9FE8q/hciUnJUumIUqvSqrKKMlW5WnlaRUjFQ6VIZUiVWdVG9ZjqAzWMmp7aQbVGtSV1ZfVI9evqXzSkNII0LmpM7RDd4bOjfMeY5jZNiuZ5zVEtfi0PrXNao9oC2hTtUu13OoI63joVOpO64rqBupd1P+vJ6lH1bukt6Kvrx+u3GKAMjA3SDXoMGQ0dDc8YjhhtM/IzumQ0a6xkvN+4xQRjYm6SbTJkymPqZVplOmumYhZv1m5OMrc3P2P+zkLCgmrRYAlbmlnmWL6yErYKtbptDaxNrXOsX9uI2uy1uWOLtbWxLbSdsJOzO2DXac9kv8f+ov28g55DpsNLRzHHKMdWJzond6cqpwVnA+eTzqMuMi7xLo9cOV0DXOvccG5ObhVuczsNd+btfO+u5J7q/myX6K59ux7u5twdvPvuHro9lD03PDAezh4XPVYo1pRSypynqWeR56yXvtcpr4/eOt653tM+mj4nfSZ9NX1P+k75afrl+E37a/vn+88E6AecCfgaaBJYErgQZB10IWgt2Dm4JgQf4hFSH8oYGhTaHsYbti+sP1wyPDV8dK/63ry9s1RzakUEFLEroi6SGXmp744Sizoc9TZaK7owejHGKebGPoZ9ofu6YyVij8ZOxhnF/bUfvd9rf+sBgQOHDryN140/nwAleCa0HhQ8mHLwfaJxYuUh4qGgQ4+TZJNOJv1Idk5uSOFJSUwZO2x8+FIqbSo1deiIxpGSNHRaQFrPUYWjp4/+SvdO78qQzcjPWDnmdazruNzxguNrJ3xP9GQqZ57NwmaFZj3L1s6uPMlwMu7kWI5lTm0uf2567o+8PXkP8xXzS04RT0WdGi2wKKg7LXQ66/TKGf8zTwv1CmuKuIuOFi0UexcPnNU5W13CU5JR8vNcwLnn543P15aKlOaXYcuiyybKnco7/1L9q6qCsyKjYvVC6IXRSrvK9iqVqqqL3BczL8GXoi5NX3a/3HfF4EpdtVT1+RrWmoyr4GrU1Q/XPK49u25+vfWG6o3qm8I3i24x3UqvhWpja2dv+98erXOt6683q29t0Gi4dUf6zoVGgcbCuyx3M5uITSlNa81xzXMt4S0z9/zujbXuaX3Z5tI22G7b3tNh3vHgvtH9tk7dzuYHmg8aH6o/rO9S7br9SPlRbbdS963HSo9v9Sj31Paq9Nb1qfU19O/obxrQHrj3xODJ/UHTwUdPrZ72P3N89nzIfWj0uffzqRfBL74ORw8vv0x8hXmV/pr+df4I90jpG/E3NaPKo3ffGrztfmf/7uWY19jH8YjxlfcpE+SJ/Em+yaop+anGaaPpvg87P7z/GP5xeSb1E8Onos9in29+0fnSPesy+/4r9evat2PfOb5f+KH4o3XOZm5kPmR+eSF9kWOxckl1qfOn88/J5ZgV3ErBqvhqwy/zX6/WQtbWwilUysarAAqpsK8vAN8uAEB2BYAJyduIOzdzwa2CQl4+YKR1gqShj3A7Khltj9HBiuI48ewEPqImjRUpiJxFW083wyDF6MNUxjzGKsEWy97MScflzF3O851vB3+KwGNBBiE74eMij8SAuIKEr+Sp7V1SCzJisrZyifKXFJ4qwcpyKrtU09Vq1d/uIGuqanloH9W5pvtKH2+gbOhllGVcZzJiBpkLWRhbBlplWt+0eW67aM/qoOBo7RTifNyl2vWR29uds+4Lu5b3AA8ihcNTykvX285nj6+PH8XfPmBHIH8QFDQa3BxyLjQ5zD/cZq8qlT8CH/El8llUU3RlTM6+hNjgONf9pgc041USlA+qJeoeMk9yTvZJiTx8ODX3SHnajaMt6d0Zz469OT554lPmt6y57PmTczlzuT/z0adYCrafNj7jVXiwqKC4+mxzyaNzg+eHS0fLpst/VKAusFRKVOlddL8Uczn3yvXq/pqv1xiuK9ywvxlxK6u26nZD3b36toaWO3cab92taapqLmspvpfXmt52oD2ww/6+cid759KD0Ye9XfcftXXfe9zYU9Nb0BfRrz9AHnjypHDQ96nSM8yzoaHK59EvdIaxw53I/lJ6Nfk6e0RjZOzN8VGN0Y9vS97ZjaHGasYdx5fe505sn2ietJscnzo8LTM9/qHyY+iMwszcp5rPXl8YvtyatZmd+HrgG9u3+98zf4TOUeZ9kX00/rNjVXptbWP9BaGrcCBKHjWFvoZJxLrgNPFSBFGiKM02kixZndaWzos+gaGEsYlpmoWeVZWNwp7GcZNzhJuGR4F3J18i/3mB5m0vBeeEaUT4RJXETMU9JGIlc7Zfk+qWnpJFywnI71BwU4xUylAuV6lXfaz2Tv3HDqwml5actqVOsG6m3lX9PoNPRnhjHhN5U0MzR3Mvi1DLfVYJ1sk2h21T7dLs0x2OOaY7pTjHuvi7OrgZ7NR2N9rltjtmT57HVUqrZ5dXh/ctnyLf/X7O/rIBpICZwL6ghuCqkMLQzLCkcOped6pOBF/EcuTTqCvRqTGe+wxjZeOE9vMc4IhnSaA/iD04n/juUFfSteS8lJjDu1LNjhikWRylpB/K+OvY/eMjJz5nzmUtZM+d/J4zm/spbyb/86nF0/Rn1ApDiyqKe86OlUyfe3/+TemLsv7yB381VTRe6Kr8dFHg0q7LRVde1DBftbqWhtxeS7eka71vF9YNNGDuKDbuuXu4qaK5saXp3sXWrLb49piOxPuZncUPyh6e7TrxKKrb/rFUD7pnuPd6X0Z/4IDtE8NBw6e2zzyHop6nvDgyHP/S95X+a87XMyP1b46MuryVeod/NzHWNl78fu+EziRpcnCqbPrgh4CP3jP+n0I+h38Jnw3/Sv0W/T32R8xcwLzxAt3CjUXDxUdLbkuffvatkFaHN9ZfErRD5tBz2AeFRWWiJdG9mDisDHYa9xfenyBDWCJ20ZSQYsh2tPJ0tHTz9C8YWhirmHKY41n8WO3YNNnFOVg4VjinuAa4m3iqecv4CvnzBXK3ZQqmCkULU0QMRflFF8W6xUskIiRNtgtIwVLT0kMyD2Qb5C7KFygkKnooqSljlXtV8lRd1DjUXqgXa3jvkNfEao5o1Wpn6vjrGuiJ6NMbAIPvhpNGz4zvmOSb+pgJm42aF1hYW+Is26ySrU1t2G0+2DbZ5dj7O2g4kh1HnK44H3Axc2VxfeNWuTMMif9Lu+7uTtyj74H36KcUeQZ57fAmeQ/7XPDd66fqt+LfHJAYqBMEglqCD4Xoh6JDO8IOh+uGL+69RHVFYnZVpHXkj6iC6B3RIzGJ+3j23Y31iGONG95/6UByvEuCWML8wbbEnEN+SQbJEinsh2lSQeqPI2Npj4/WpB/LoBxTPI47PnziamZ6VlC28UnGk/dzdubM5Mbl6ebrnUo7jT+TXjhezHFWvkTtnNp5pVKZMrFygb84KhguECsJVXTITtK87HHlSPWVmidXV66L3XC7efJW/23mOtf6ooahRsxd8SbjZs+Wg/fOtja1vWlfuy/Qqf/A7+GxrmuPnnWv9oj37uw71T/yRH7w+NPPQ/bP64cFXua9lnlD+zZmPGMq9pPVt/kl2/X13/xPcL1glQHIQfJMp+NInQYg+zaSZ94BgI0IgA0ZAAc1AB+pBrBxNYCCDv+JHxCSeOKRnJMV8AFxoIhkmhbADcma94GjSEZ5GTSBATABViBGSBzSQfLDCOg4kg92QGMwBAvAerA3fATJ8gbgnyhBlCUqDlWJGkLj0eroEHQZ+gWGEWOOZGRtWAirg03EtuIwODNcFu45XgAfjK8n4AjOhErCT6Il8TxxgcaKppKEJnmS2sjC5KPkz7QOtI1IppNND+j30o8zuDL0Mhox3mVSZaplVmduY7FjGWONYsOy5bOLsNdxWHFMcaZxyXGNcZfwePJK8i7y3efPE/DepiiIFXwpdEM4UyRY1FxMUpwsPivxVPLO9rNSCdLuMmqyzLKzco/lLyocVfRXMlOWVmFRWVP9pDaiPqDRtaNDs12rU7tHZ1h3Sm/eABhikXsOb4I3JZiRzJktBCwVraysQ21ybRvt3juQHRWdXJ3jXc65trtNutPskt3ttOeARzmlx3PRW8jH3vewX6P/z0D9oNPBS6FeYQN7jaiNkYpRNTFS+67F7djfFx92kDvxWVJuisXh+SO5R7endxzzOcGS+Sb7cc7rvLUC/jNqRRZn95yLLT1XPnxBqurcZdnq0Wvnb+6+TVNf3birWbKVr8PoQWk3qVesf34we0jsRf+rs29OvRuY8Jhe+sT45fI38EN2Xm1hbSn9Z93y4Mqd1bJf4WsqG/cHtPGfAyPgAiJAHmgDS+AOQkACyAbloB70gvdgFWKFZCAzyBdKhkqhe9A7GA2LwhYwFT4Dt8FfUNwoc9QBVA1qHM2JtkNnoDswEEYTsx9zB7OC1cYmYx/i6HGuuL9w3/C6+Bz8BEGDkEOYIRoha75C40JzE8mEqaRBshr5HC0N7T7aSTpXuh56I/oWBi2GZkZ9xi4me6bXSGb6kyWTVYL1Edtedlb2Wg5bjgnOWC4yVzm3Dvc4TzavGR8t32v+GwIntgUI6gmxC30UviuSJeorpicuLMEoid+OkcJL08owyjLI4eWW5KcUhhS7lO4p31PpUn2p9k2Ddoespq1WgHakDlXXX89F39hAzVDRSNXY2GSPaYLZefNOi1krLmtDmyAkpuXan3LIc8x1Oufc7PLVTWlnovvj3bx7Ij16PQW9fL3zfG759viN+y8HsgYpBDuERIeeCWsJ/0BlizCKjI66ED28jz7WMi5z//N4kYT4g2OH/JLpU7pSI9OwR49koI+lneDKbMtOynHJ0z+lcVqjUKNYrUT8PLr0fnl0BdeFu1Wel1guv67uuNp7fe6W3O0D9Y8a6ZoMWqitFe3TnXoPr3fL9RT1vR74Mfj12eTzseGpVz/eQG+JY8zvhSZNpvNnVL6kf69YCF7qWU5ZaVv98WtpY/1h5PQzAF4gBbSALfAF8SAfXAXd4ANEgCQhS4gKFUAt0AeYFTaAI+EKeBjFgDJFpaBaUKtoDXQcugG9gtHFpGOGsOLYQ9jXOC1cKR6PD8MPEtQIxUSYGEh8SmNAc4ekRrpHtiFP0CbRCdC10LvTzzNkMUoxPmYKZSYzV7LosbxijWXjZethP8HhyanHJcHNzL3M85q3ju8kf4iAxTZZQXYhrNCS8FeRL6LfxVYlaCWFtutIeUgnyhTL1sk9kf+uyKlkqpyk0qZGUnfXuKqJQ95Vm3S36eUYsBpWG7uZMpj1W5yxCrNxtJO3H3Z0c+p2MXF9stPXfXF3sgdECfd86q3iU+RH8D8USAwqC7EMA+G3qWGRvFFtMVGx3vs/J5Qnxh56lrSSAh/Gp9IfUUiLODqY4Xhs+kRalnT2i5y0PI38rwVVZ3YXEYsvlKicu1uqXdbyl0FFV6VN1eAlh8t91UY19dfErp+6ib8VX7tSd7RB5E7f3aRm5Zbp1qJ26/vozjsPIx5Jdo/3nO1zGWB+MvA0c8js+drw5VfWr6feRI2uvksaR71PmoSnkj+gPx6c+fzZ6EvsbPHX49+ivht8X/hxcc5q7uW8//z8QvTC9KL7Yu+S/tKln+Sf4T8HlpWWC5a/rpiulK4srzqsXvmF+uXy6/IatOa4dnF9/SN8FeQ3wgdE0gMAM7K29l0EANxJAFaz19aWS9fWVsuQZOMVAC3Bm9+ZNmINPQBFb9ZRl8TTxH9/49n8BvWPPObfLdiIRBtakUi0XtajEvgfLQfvtaLlToMAAABWZVhJZk1NACoAAAAIAAGHaQAEAAAAAQAAABoAAAAAAAOShgAHAAAAEgAAAESgAgAEAAAAAQAAADWgAwAEAAAAAQAAACEAAAAAQVNDSUkAAABTY3JlZW5zaG90dx38HQAAAdRpVFh0WE1MOmNvbS5hZG9iZS54bXAAAAAAADx4OnhtcG1ldGEgeG1sbnM6eD0iYWRvYmU6bnM6bWV0YS8iIHg6eG1wdGs9IlhNUCBDb3JlIDYuMC4wIj4KICAgPHJkZjpSREYgeG1sbnM6cmRmPSJodHRwOi8vd3d3LnczLm9yZy8xOTk5LzAyLzIyLXJkZi1zeW50YXgtbnMjIj4KICAgICAgPHJkZjpEZXNjcmlwdGlvbiByZGY6YWJvdXQ9IiIKICAgICAgICAgICAgeG1sbnM6ZXhpZj0iaHR0cDovL25zLmFkb2JlLmNvbS9leGlmLzEuMC8iPgogICAgICAgICA8ZXhpZjpQaXhlbFlEaW1lbnNpb24+MzM8L2V4aWY6UGl4ZWxZRGltZW5zaW9uPgogICAgICAgICA8ZXhpZjpQaXhlbFhEaW1lbnNpb24+NTM8L2V4aWY6UGl4ZWxYRGltZW5zaW9uPgogICAgICAgICA8ZXhpZjpVc2VyQ29tbWVudD5TY3JlZW5zaG90PC9leGlmOlVzZXJDb21tZW50PgogICAgICA8L3JkZjpEZXNjcmlwdGlvbj4KICAgPC9yZGY6UkRGPgo8L3g6eG1wbWV0YT4KFJYPNwAABE5JREFUWAntVntMU2cU/xXaApYWZeqAKQ8BE2dUHGbG+cAsi/6lojOLWTIXF52RGR/RqNk0zj19zPiHiSb8YSLb4usfMZEomiy+poi66FB0gHYWpQoUWkFLaanf+cq9vYV76e3SGzPSk9x7v3u+c873nffR+RlgkEHcINOHqxNT6v/i1ZinYp56gxaIhd8bNH5ER+sjolZBXPP0JY7caEZNUyca2zzITE3A+1lmrP8wA4kG9YHx/EU3yqqe4+ojF1xuHypKxsMQr1NxA0AXzYliS7kVuyobkcQuP39iKhL0cSi/44DzlRfvjU7G9U2TEB8X/mKnGM/nZf+gnfGlWYyYmWdB2dKxqo0SVU81M+sS7P04B6tmpvP1xXonivb9jVu2DlyzvsD0MRaOV3p9c+pf/Fxpw9tmI6rXFGBKZrISqSI+qkp9NnUkJjOPfDk9TTxwRm4KjHodPF4/nrR7RLzcorK2HT+dtSEjxYg/1k3A2JFJcmRhcREp1dDihq/HjyyWJxRafWF2fgrokcKdJ51cIR2LuqnZZulWyLrb58faEw0cd2BJ7n9WiASoVopm+bztN/ihZ1aPx9xxw/h6oNdfLOSKS2s5yQ/zsrgxlOiP32rB/Wev8JZJjyJmmCsPXXjIjEjeohBUk4uCbNVKCQxqvptPWlmBaMUDdkmC0k/zsEISknIyyAAELBCQ/+1NtHQE8pNwVCyubJiIMcMT6Tcs9I8hBRYKnz0Lc7BzQTbeTRuiQBVE0wWonBOUHG3A7nONwU2Z1d2mlxyrZ9XxF3aOa+80PPpuCqblmGF3ebCo1+MyrP1RVNK1ApZ//p1nbX6UXOLP+fttikflbKvmNIf+tIfQlN9uFfmZ90L2lH5Ue6q/OcJjqCVtnjMKhb1l+XRNmyKTKSFwFVNCfAhNUb4FQmurtQe8GUIg86OpUsJ5lBMEVDmVICs1kC8UalKwJOrFIpE5LBDO0n25dURKfXWsASuP1IsFoK/AeQfvIXNrNZolSe7u7sGFOicnnZEbbLw/nrFxWdZWN9+bxaYGgtM1Dv4VXtS8qdyns94l5Kiwp/RVrRSV9AMXm1B62Q6rI3CRvkKdbi9sbV1Y9msdrrPpgZT54rc6dHT5UDDKhDnjhoosx262cFn37IEKWTIrnU0RBggNmBr1pXoXlv9ex8Nvd3G2yBtuEVFJp15BIRRPpVAGFk8ezuY8NnzedYgWJ+suZZPG/k9yYUkM5ku3r4dLMPfmUDL7Vm0q4ErsqHgMGpdoAC5kE8r3rMctKRwhc6I8KqoDrXAEhUuT04MkYxxGJBsEtPht7fQi4+sqpA4xoH5HIUzGoLJE5GWGe+zowmiWQ2onc1E4W0TkKSnjQGu6yEDxv4KHlA6H2eTdVyGSS71KbaOVu4cmSskdJMXR0Lvxo3fwQZiJXcoTyVqT8IvkAlrQqq5+WhyulcyYUlpZNtpyY56KtkW1kjcoPfUagokINghKL20AAAAASUVORK5CYII=;" vertex="1" parent="1">
          <mxGeometry x="301" y="252" width="53" height="33" as="geometry" />
        </mxCell>
        <mxCell id="CFr75wKBuciZfdH8mXrQ-11" value="" style="shape=image;verticalLabelPosition=bottom;labelBackgroundColor=default;verticalAlign=top;aspect=fixed;imageAspect=0;image=data:image/png,iVBORw0KGgoAAAANSUhEUgAAADUAAAAhCAYAAAB5oeP9AAAYhmlDQ1BJQ0MgUHJvZmlsZQAAWIWVeQk4Vd33/z7nzte95nmWmcwzmed5HlO55pmuKYqEJCpkSCGFVzTQKCRkSEmmlFJJkaFUGkwhv2Oo9/2+3//z/z2//Tz77M9de+211l57WGfdAwDXK0p4eDBMD0BIaCTVzliP38XVjR83AWBAAmSgCugoXhHhujY2FgApv9v/LPPPALTePpFal/Xf/f/fwujtE+EFAOSOYE/vCK8QBLcAgC7yCqdGAoBdpwvGRIav40QEM1MRAxGcu479NnHlOvbcxI0bPA52+gjuAwBPolCofgDQvkLo/NFefogc2hWkjzHUOyAUABZk5lgtL3+KNwBcNgjP9pCQsHV8AMFiCH84gssRrOr5D5l+/yHf8498CsXvD96c10bBGwREhAdTYv+PrvnfS0hw1G8dIkgl+VNN7Nbnj/jweVCY+TomIXgm1NPKet3XCF4M8N70OwAw0T/KxHGTH+b2itBH/AdYESzrTTEwRzA3go1Cg60stuievgFGpghGfAbvC4g0dUAwO4LTfCIM7bd4zlHD7LZ0wbW+VH3dLfoDCnVD77qukaggR90t+d/8fUy35KNo4/wdnBFMRLBQdICTFYJpESwdEWRvvsWzI85f3+o3DzXKbt1+IQTb+YQa623KR0X7Uo3stvjTQyJ+zxd1zj/A1GoLX4/0dzDZ9A+q3YuyYT8yF1SfT6iu4285PhEuFr/n4u1jYLg5d9SUT6ij/ZacxfBIPbvNsWhieLDNFj96m0+w8Tp9G4IVI6Ltt8ainSKRzbkpH+0bHmnjsGknOi6QYmazaQ86C1gAfWAA+EEUUj1BGAgEAT0zt2eQX5s9RoACqMAP+ACpLcrvEc4bPaHI0x7EgU8I8gERf8bpbfT6gGiEvvqHuvmUAr4bvdEbI4LABIJDgDkIRn5HbYwK/aPNCYwjlID/0k5BqhdibzBS1/v/3/Tf1L8pugjFYosS9VsjP91vTqwh1gBrgjXCiqM50VpoDbQF8tRBqjxaFa32ex5/82MmMP2Yd5inmFHMiz0BSdR/WWkJRhH5Rlu+8PynL9AiiEwltB5aE5GOSEazojmBFFoR0aOL1kY0KyFU/S27173C/y/Z/zGDf6zGFh9BlgAT2Ag6BLF/j6SVoFX6I2Xd1//0z6atnn/8rf+n59/69f/hfW+kNf83JyoNdQPVibqHeohqRN0G/KhmVB2qG3V3Hf/ZXeMbu+u3NrsNe4IQOQH/pY+ypXPdkxGyl2SnZVc2+yJ99kWuHzz9sPBYaoCffyS/LhIdfPhNQ72kt/PLy8rLA7Aeazavr+92GzEEYu39m0ZBYokqwkXU+5sWhtwZ1XnIkTn9N00EOdMcagBct/OKokZv0tDrDwxyS9AhJ40D8AJBIIbMRx4oAw2gAwyBGbAGDsAV7Ea87I/scyqIAQfAIZAKMkAWyANnQAkoA5XgCrgOboNGcA/cB49AH3gKXiK75z34CGbBPFiGIAgHkSEmiAPig4QhSUgeUoW0IEPIArKDXCEPyA8KhaKgA1AylAGdhM5A56Eq6BpUD92DHkL90AvoLTQNfYN+wiiYBDPDPLAILAOrwrqwOewA74L94L1wHJwCn4AL4FL4MlwL34MfwU/hUfgjPIcCKBoUK0oAJYVSRemjrFFuKF8UFZWASkflo0pR1agGZJ2foEZRM6glNBbNhOZHSyE72ATtiPZC70UnoI+hz6Ar0bXodvQT9Fv0LPoXhozhxkhi1DGmGBeMHyYGk4rJx1RgbmE6kLP0HjOPxWJZsaJYFeQsumIDsfuxx7DF2BpsC7YfO4adw+FwHDhJnCbOGkfBReJScadxl3HNuAHce9wingbPh5fHG+Hd8KH4JHw+/iK+CT+An8QvE+gJwgR1gjXBmxBLyCSUExoIvYT3hGUiA1GUqEl0IAYSDxELiNXEDuIr4ncaGpptNGo0tjQBNIk0BTRXaR7QvKVZIjGSJEj6JHdSFOkE6QKphfSC9J1MJouQdchu5EjyCXIVuY08Ql6kZaKVpjWl9aY9SFtIW0s7QPuZjkAnTKdLt5suji6f7gZdL90MPYFehF6fnkKfQF9IX08/RD/HwMQgx2DNEMJwjOEiw0OGKUYcowijIaM3YwpjGWMb4xgTikmQSZ/JiymZqZypg+k9M5ZZlNmUOZA5g/kKcw/zLAsjiyKLE8s+lkKWuyyjrChWEVZT1mDWTNbrrM9Yf7LxsOmy+bAdZatmG2BbYOdi12H3YU9nr2F/yv6Tg5/DkCOII5vjNsdrTjSnBKctZwznWc4OzhkuZi4NLi+udK7rXMPcMLcEtx33fu4y7m7uOR5eHmOecJ7TPG08M7ysvDq8gby5vE2803xMfFp8AXy5fM18H/hZ+HX5g/kL+Nv5ZwW4BUwEogTOC/QILG8T3ea4LWlbzbbXgkRBVUFfwVzBVsFZIT4hS6EDQpeEhoUJwqrC/sKnhDuFF0RERZxFjojcFpkSZRc1FY0TvST6Sowspi22V6xUbFAcK64qHiReLN4nAUsoSfhLFEr0SsKSypIBksWS/dsx29W2h24v3T4kRZLSlYqWuiT1VppV2kI6Sfq29GcZIRk3mWyZTplfskqywbLlsi/lGOXM5JLkGuS+yUvIe8kXyg8qkBWMFA4q1Cl8VZRU9FE8q/hciUnJUumIUqvSqrKKMlW5WnlaRUjFQ6VIZUiVWdVG9ZjqAzWMmp7aQbVGtSV1ZfVI9evqXzSkNII0LmpM7RDd4bOjfMeY5jZNiuZ5zVEtfi0PrXNao9oC2hTtUu13OoI63joVOpO64rqBupd1P+vJ6lH1bukt6Kvrx+u3GKAMjA3SDXoMGQ0dDc8YjhhtM/IzumQ0a6xkvN+4xQRjYm6SbTJkymPqZVplOmumYhZv1m5OMrc3P2P+zkLCgmrRYAlbmlnmWL6yErYKtbptDaxNrXOsX9uI2uy1uWOLtbWxLbSdsJOzO2DXac9kv8f+ov28g55DpsNLRzHHKMdWJzond6cqpwVnA+eTzqMuMi7xLo9cOV0DXOvccG5ObhVuczsNd+btfO+u5J7q/myX6K59ux7u5twdvPvuHro9lD03PDAezh4XPVYo1pRSypynqWeR56yXvtcpr4/eOt653tM+mj4nfSZ9NX1P+k75afrl+E37a/vn+88E6AecCfgaaBJYErgQZB10IWgt2Dm4JgQf4hFSH8oYGhTaHsYbti+sP1wyPDV8dK/63ry9s1RzakUEFLEroi6SGXmp744Sizoc9TZaK7owejHGKebGPoZ9ofu6YyVij8ZOxhnF/bUfvd9rf+sBgQOHDryN140/nwAleCa0HhQ8mHLwfaJxYuUh4qGgQ4+TZJNOJv1Idk5uSOFJSUwZO2x8+FIqbSo1deiIxpGSNHRaQFrPUYWjp4/+SvdO78qQzcjPWDnmdazruNzxguNrJ3xP9GQqZ57NwmaFZj3L1s6uPMlwMu7kWI5lTm0uf2567o+8PXkP8xXzS04RT0WdGi2wKKg7LXQ66/TKGf8zTwv1CmuKuIuOFi0UexcPnNU5W13CU5JR8vNcwLnn543P15aKlOaXYcuiyybKnco7/1L9q6qCsyKjYvVC6IXRSrvK9iqVqqqL3BczL8GXoi5NX3a/3HfF4EpdtVT1+RrWmoyr4GrU1Q/XPK49u25+vfWG6o3qm8I3i24x3UqvhWpja2dv+98erXOt6683q29t0Gi4dUf6zoVGgcbCuyx3M5uITSlNa81xzXMt4S0z9/zujbXuaX3Z5tI22G7b3tNh3vHgvtH9tk7dzuYHmg8aH6o/rO9S7br9SPlRbbdS963HSo9v9Sj31Paq9Nb1qfU19O/obxrQHrj3xODJ/UHTwUdPrZ72P3N89nzIfWj0uffzqRfBL74ORw8vv0x8hXmV/pr+df4I90jpG/E3NaPKo3ffGrztfmf/7uWY19jH8YjxlfcpE+SJ/Em+yaop+anGaaPpvg87P7z/GP5xeSb1E8Onos9in29+0fnSPesy+/4r9evat2PfOb5f+KH4o3XOZm5kPmR+eSF9kWOxckl1qfOn88/J5ZgV3ErBqvhqwy/zX6/WQtbWwilUysarAAqpsK8vAN8uAEB2BYAJyduIOzdzwa2CQl4+YKR1gqShj3A7Khltj9HBiuI48ewEPqImjRUpiJxFW083wyDF6MNUxjzGKsEWy97MScflzF3O851vB3+KwGNBBiE74eMij8SAuIKEr+Sp7V1SCzJisrZyifKXFJ4qwcpyKrtU09Vq1d/uIGuqanloH9W5pvtKH2+gbOhllGVcZzJiBpkLWRhbBlplWt+0eW67aM/qoOBo7RTifNyl2vWR29uds+4Lu5b3AA8ihcNTykvX285nj6+PH8XfPmBHIH8QFDQa3BxyLjQ5zD/cZq8qlT8CH/El8llUU3RlTM6+hNjgONf9pgc041USlA+qJeoeMk9yTvZJiTx8ODX3SHnajaMt6d0Zz469OT554lPmt6y57PmTczlzuT/z0adYCrafNj7jVXiwqKC4+mxzyaNzg+eHS0fLpst/VKAusFRKVOlddL8Uczn3yvXq/pqv1xiuK9ywvxlxK6u26nZD3b36toaWO3cab92taapqLmspvpfXmt52oD2ww/6+cid759KD0Ye9XfcftXXfe9zYU9Nb0BfRrz9AHnjypHDQ96nSM8yzoaHK59EvdIaxw53I/lJ6Nfk6e0RjZOzN8VGN0Y9vS97ZjaHGasYdx5fe505sn2ietJscnzo8LTM9/qHyY+iMwszcp5rPXl8YvtyatZmd+HrgG9u3+98zf4TOUeZ9kX00/rNjVXptbWP9BaGrcCBKHjWFvoZJxLrgNPFSBFGiKM02kixZndaWzos+gaGEsYlpmoWeVZWNwp7GcZNzhJuGR4F3J18i/3mB5m0vBeeEaUT4RJXETMU9JGIlc7Zfk+qWnpJFywnI71BwU4xUylAuV6lXfaz2Tv3HDqwml5actqVOsG6m3lX9PoNPRnhjHhN5U0MzR3Mvi1DLfVYJ1sk2h21T7dLs0x2OOaY7pTjHuvi7OrgZ7NR2N9rltjtmT57HVUqrZ5dXh/ctnyLf/X7O/rIBpICZwL6ghuCqkMLQzLCkcOped6pOBF/EcuTTqCvRqTGe+wxjZeOE9vMc4IhnSaA/iD04n/juUFfSteS8lJjDu1LNjhikWRylpB/K+OvY/eMjJz5nzmUtZM+d/J4zm/spbyb/86nF0/Rn1ApDiyqKe86OlUyfe3/+TemLsv7yB381VTRe6Kr8dFHg0q7LRVde1DBftbqWhtxeS7eka71vF9YNNGDuKDbuuXu4qaK5saXp3sXWrLb49piOxPuZncUPyh6e7TrxKKrb/rFUD7pnuPd6X0Z/4IDtE8NBw6e2zzyHop6nvDgyHP/S95X+a87XMyP1b46MuryVeod/NzHWNl78fu+EziRpcnCqbPrgh4CP3jP+n0I+h38Jnw3/Sv0W/T32R8xcwLzxAt3CjUXDxUdLbkuffvatkFaHN9ZfErRD5tBz2AeFRWWiJdG9mDisDHYa9xfenyBDWCJ20ZSQYsh2tPJ0tHTz9C8YWhirmHKY41n8WO3YNNnFOVg4VjinuAa4m3iqecv4CvnzBXK3ZQqmCkULU0QMRflFF8W6xUskIiRNtgtIwVLT0kMyD2Qb5C7KFygkKnooqSljlXtV8lRd1DjUXqgXa3jvkNfEao5o1Wpn6vjrGuiJ6NMbAIPvhpNGz4zvmOSb+pgJm42aF1hYW+Is26ySrU1t2G0+2DbZ5dj7O2g4kh1HnK44H3Axc2VxfeNWuTMMif9Lu+7uTtyj74H36KcUeQZ57fAmeQ/7XPDd66fqt+LfHJAYqBMEglqCD4Xoh6JDO8IOh+uGL+69RHVFYnZVpHXkj6iC6B3RIzGJ+3j23Y31iGONG95/6UByvEuCWML8wbbEnEN+SQbJEinsh2lSQeqPI2Npj4/WpB/LoBxTPI47PnziamZ6VlC28UnGk/dzdubM5Mbl6ebrnUo7jT+TXjhezHFWvkTtnNp5pVKZMrFygb84KhguECsJVXTITtK87HHlSPWVmidXV66L3XC7efJW/23mOtf6ooahRsxd8SbjZs+Wg/fOtja1vWlfuy/Qqf/A7+GxrmuPnnWv9oj37uw71T/yRH7w+NPPQ/bP64cFXua9lnlD+zZmPGMq9pPVt/kl2/X13/xPcL1glQHIQfJMp+NInQYg+zaSZ94BgI0IgA0ZAAc1AB+pBrBxNYCCDv+JHxCSeOKRnJMV8AFxoIhkmhbADcma94GjSEZ5GTSBATABViBGSBzSQfLDCOg4kg92QGMwBAvAerA3fATJ8gbgnyhBlCUqDlWJGkLj0eroEHQZ+gWGEWOOZGRtWAirg03EtuIwODNcFu45XgAfjK8n4AjOhErCT6Il8TxxgcaKppKEJnmS2sjC5KPkz7QOtI1IppNND+j30o8zuDL0Mhox3mVSZaplVmduY7FjGWONYsOy5bOLsNdxWHFMcaZxyXGNcZfwePJK8i7y3efPE/DepiiIFXwpdEM4UyRY1FxMUpwsPivxVPLO9rNSCdLuMmqyzLKzco/lLyocVfRXMlOWVmFRWVP9pDaiPqDRtaNDs12rU7tHZ1h3Sm/eABhikXsOb4I3JZiRzJktBCwVraysQ21ybRvt3juQHRWdXJ3jXc65trtNutPskt3ttOeARzmlx3PRW8jH3vewX6P/z0D9oNPBS6FeYQN7jaiNkYpRNTFS+67F7djfFx92kDvxWVJuisXh+SO5R7endxzzOcGS+Sb7cc7rvLUC/jNqRRZn95yLLT1XPnxBqurcZdnq0Wvnb+6+TVNf3birWbKVr8PoQWk3qVesf34we0jsRf+rs29OvRuY8Jhe+sT45fI38EN2Xm1hbSn9Z93y4Mqd1bJf4WsqG/cHtPGfAyPgAiJAHmgDS+AOQkACyAbloB70gvdgFWKFZCAzyBdKhkqhe9A7GA2LwhYwFT4Dt8FfUNwoc9QBVA1qHM2JtkNnoDswEEYTsx9zB7OC1cYmYx/i6HGuuL9w3/C6+Bz8BEGDkEOYIRoha75C40JzE8mEqaRBshr5HC0N7T7aSTpXuh56I/oWBi2GZkZ9xi4me6bXSGb6kyWTVYL1Edtedlb2Wg5bjgnOWC4yVzm3Dvc4TzavGR8t32v+GwIntgUI6gmxC30UviuSJeorpicuLMEoid+OkcJL08owyjLI4eWW5KcUhhS7lO4p31PpUn2p9k2Ddoespq1WgHakDlXXX89F39hAzVDRSNXY2GSPaYLZefNOi1krLmtDmyAkpuXan3LIc8x1Oufc7PLVTWlnovvj3bx7Ij16PQW9fL3zfG759viN+y8HsgYpBDuERIeeCWsJ/0BlizCKjI66ED28jz7WMi5z//N4kYT4g2OH/JLpU7pSI9OwR49koI+lneDKbMtOynHJ0z+lcVqjUKNYrUT8PLr0fnl0BdeFu1Wel1guv67uuNp7fe6W3O0D9Y8a6ZoMWqitFe3TnXoPr3fL9RT1vR74Mfj12eTzseGpVz/eQG+JY8zvhSZNpvNnVL6kf69YCF7qWU5ZaVv98WtpY/1h5PQzAF4gBbSALfAF8SAfXAXd4ANEgCQhS4gKFUAt0AeYFTaAI+EKeBjFgDJFpaBaUKtoDXQcugG9gtHFpGOGsOLYQ9jXOC1cKR6PD8MPEtQIxUSYGEh8SmNAc4ekRrpHtiFP0CbRCdC10LvTzzNkMUoxPmYKZSYzV7LosbxijWXjZethP8HhyanHJcHNzL3M85q3ju8kf4iAxTZZQXYhrNCS8FeRL6LfxVYlaCWFtutIeUgnyhTL1sk9kf+uyKlkqpyk0qZGUnfXuKqJQ95Vm3S36eUYsBpWG7uZMpj1W5yxCrNxtJO3H3Z0c+p2MXF9stPXfXF3sgdECfd86q3iU+RH8D8USAwqC7EMA+G3qWGRvFFtMVGx3vs/J5Qnxh56lrSSAh/Gp9IfUUiLODqY4Xhs+kRalnT2i5y0PI38rwVVZ3YXEYsvlKicu1uqXdbyl0FFV6VN1eAlh8t91UY19dfErp+6ib8VX7tSd7RB5E7f3aRm5Zbp1qJ26/vozjsPIx5Jdo/3nO1zGWB+MvA0c8js+drw5VfWr6feRI2uvksaR71PmoSnkj+gPx6c+fzZ6EvsbPHX49+ivht8X/hxcc5q7uW8//z8QvTC9KL7Yu+S/tKln+Sf4T8HlpWWC5a/rpiulK4srzqsXvmF+uXy6/IatOa4dnF9/SN8FeQ3wgdE0gMAM7K29l0EANxJAFaz19aWS9fWVsuQZOMVAC3Bm9+ZNmINPQBFb9ZRl8TTxH9/49n8BvWPPObfLdiIRBtakUi0XtajEvgfLQfvtaLlToMAAABWZVhJZk1NACoAAAAIAAGHaQAEAAAAAQAAABoAAAAAAAOShgAHAAAAEgAAAESgAgAEAAAAAQAAADWgAwAEAAAAAQAAACEAAAAAQVNDSUkAAABTY3JlZW5zaG90dx38HQAAAdRpVFh0WE1MOmNvbS5hZG9iZS54bXAAAAAAADx4OnhtcG1ldGEgeG1sbnM6eD0iYWRvYmU6bnM6bWV0YS8iIHg6eG1wdGs9IlhNUCBDb3JlIDYuMC4wIj4KICAgPHJkZjpSREYgeG1sbnM6cmRmPSJodHRwOi8vd3d3LnczLm9yZy8xOTk5LzAyLzIyLXJkZi1zeW50YXgtbnMjIj4KICAgICAgPHJkZjpEZXNjcmlwdGlvbiByZGY6YWJvdXQ9IiIKICAgICAgICAgICAgeG1sbnM6ZXhpZj0iaHR0cDovL25zLmFkb2JlLmNvbS9leGlmLzEuMC8iPgogICAgICAgICA8ZXhpZjpQaXhlbFlEaW1lbnNpb24+MzM8L2V4aWY6UGl4ZWxZRGltZW5zaW9uPgogICAgICAgICA8ZXhpZjpQaXhlbFhEaW1lbnNpb24+NTM8L2V4aWY6UGl4ZWxYRGltZW5zaW9uPgogICAgICAgICA8ZXhpZjpVc2VyQ29tbWVudD5TY3JlZW5zaG90PC9leGlmOlVzZXJDb21tZW50PgogICAgICA8L3JkZjpEZXNjcmlwdGlvbj4KICAgPC9yZGY6UkRGPgo8L3g6eG1wbWV0YT4KFJYPNwAABDBJREFUWAntV2lsTFEU/kZn2ulMZ1RbpaWLUkotpWKNJbafgoT4gwhCRCwxQkgEsYRYIoSk/9oEQUjahCBRsRQNY6lSqjVdUh01rXZanS7TqXtuvZepvjFvzNOEzEnevPvuveee853tnlF1MsJ/Rn3+MzwcTgDUv+LVgKf+FU+plVS0uc2Fa69syP3QgFKbAy4XMDpWhxWTozE9yShbVE1jO7Lya/DEYoe9pQM3N6ZCE6SSza9SqqSTIsP2PUcjU2JUjA7zU8KRV2rH84omqPuocHH1CCydEOVVsZyCOqzKKka9w4mBxmDMGGZE1srh0GrkZ4pinmp1ujighIgQmHemiUrMOf0G94obkJFn9QpqT045jtypxABDMJ5tTsPE+DCvRpDaoBioqDANTi9NwqQEgwiIBM4dEc5BVdW3SckX5+4U1ePw7UrE9g3Gva1jMDw6VFzzdaAYqFAWHptnx/aQ/6y8ic9NGWLosSZMtHd0YsvVUv55bvlQvwDRIYqBEhQU3k5XJ3ZctyC7oBbxLCQPL0wQlnq8r7yw4f0XByL1asxK7ou8T3Z8srVwcBSCQSwnfSFZoBztLliYECoA3sjMCsOu7DLklzXyHEtlPLlbxiDaoPHI+rKyy5vMDkjeZ4atqV3cS8Uib/tYJEVpxTlvA1klZcbJAqQefIFTuVXezkMH06yfTo3RDAyV4bfVzVhwphCW2haPvLSHiKrk8cVDYD8xFZYDEzGVhazV3oYlGUUeeaUWZIGick301c2CUofR3KREA66sScFj0zi835uOlAGheF31HSsziz2x4AMLPaKjixKxako0DNogJEZqsWtBHJ8n/trvTj6W8yMLVM6GUTi7bCh2zBss50xxD4XMMWZ5IsqTBnb3SJE+pEsNfUhQt+VZyUYI6VRk7fJmtw0ePmTlVNpgPej5E4phJVqgDtZhSFFChBaFn5t5qLmvG7VqXiRcrDrG9wtxX/rtWJanfnvCz0XyRLjpKfbfrOi2/fa7b/x75EAdIlh1Izp0qxLrL5Wg7GeezWRdA9GNwjr+Fn4elDSAyj0ZhiqoXFIMVCurkBRedIFmPq1BcY0DZ+9X4/zDah5CprmDRJ0um23IeGTFO2tXLm2cGcO6CA2EC5gu6ocldqy98JHzHmO55gsp1vtRdTOxe+kua2aF3KF+jcKWcnFJWqSo18gDZn4vPdg2lvd2tFBe18pBkHfanJ28K0mPC8Om2TFYnt5f5JUzUAyUu7BvzU7UsYf6QCrT7kRVLHZ3PiJ0GpTsT4c+uHtxoEu7ggGMYznkS2fuLkNWoXBnkDOme4oeKVrHQ0qFTNZ5/wqI9pMRfLlopWRIS5baqdDceBZSpnmDMM2H/1e+iv4r4eerEkrvV6z6Ka2YP+cFQPljvd7kDXiqN63tj6yAp/yxXm/yBjzVm9b2R9YPD+1odh4auSwAAAAASUVORK5CYII=;" vertex="1" parent="1">
          <mxGeometry x="301" y="122" width="53" height="33" as="geometry" />
        </mxCell>
      </root>
    </mxGraphModel>
  </diagram>
</mxfile>
